HIERARCHY
ROOT Hip
{
  OFFSET 0.0 0.0 0.0
  CHANNELS 6 Xposition Yposition Zposition Xrotation Yrotation Zrotation
  JOINT LowerSpine
  {
    OFFSET 0.0 0.061367 -0.03653
    CHANNELS 3 Xrotation Yrotation Zrotation
    JOINT MiddleSpine
    {
      OFFSET 0.0 0.056002 0.002633
      CHANNELS 3 Xrotation Yrotation Zrotation
      JOINT Chest
      {
        OFFSET 0.0 0.069296 -0.013882
        CHANNELS 3 Xrotation Yrotation Zrotation
        JOINT Neck
        {
          OFFSET 0.0 0.156156 -0.002923
          CHANNELS 3 Xrotation Yrotation Zrotation
          JOINT Head
          {
            OFFSET 0.0 0.088183 0.023986
            CHANNELS 3 Xrotation Yrotation Zrotation
            End Site
            {
              OFFSET 1e-06 0.123215 0.003678
            }
          }
        }
        JOINT LClavicle
        {
          OFFSET 0.014189 0.150698 0.046467
          CHANNELS 3 Xrotation Yrotation Zrotation
          JOINT LShoulder
          {
            OFFSET 0.082893 0.021616 -0.034976
            CHANNELS 3 Xrotation Yrotation Zrotation
            JOINT LForearm
            {
              OFFSET 0.195645 -0.000695 -0.001695
              CHANNELS 3 Xrotation Yrotation Zrotation
              JOINT LHand
              {
                OFFSET 0.163209 0.000474 -0.000977
                CHANNELS 3 Xrotation Yrotation Zrotation
                End Site
                {
                  OFFSET 0.0 0.006864 0.0
                }
              }
            }
          }
        }
        JOINT RClavicle
        {
          OFFSET -0.014189 0.150698 0.046467
          CHANNELS 3 Xrotation Yrotation Zrotation
          JOINT RShoulder
          {
            OFFSET -0.082908 0.021619 -0.034982
            CHANNELS 3 Xrotation Yrotation Zrotation
            JOINT RForearm
            {
              OFFSET -0.195645 -0.000695 -0.001695
              CHANNELS 3 Xrotation Yrotation Zrotation
              JOINT RHand
              {
                OFFSET -0.163209 0.000474 -0.000977
                CHANNELS 3 Xrotation Yrotation Zrotation
                End Site
                {
                  OFFSET 0.0 0.006864 0.0
                }
              }
            }
          }
        }
      }
    }
  }
  JOINT RThigh
  {
    OFFSET -0.072558 0.02774 -0.005953
    CHANNELS 3 Xrotation Yrotation Zrotation
    JOINT RShin
    {
      OFFSET -0.005253 -0.285537 0.0
      CHANNELS 3 Xrotation Yrotation Zrotation
      JOINT RFoot
      {
        OFFSET 0.0 -0.28038 0.0
        CHANNELS 3 Xrotation Yrotation Zrotation
        JOINT RToe
        {
          OFFSET 0.0 -0.030816 0.064441
          CHANNELS 3 Xrotation Yrotation Zrotation
          End Site
          {
            OFFSET 0.0 0.0 0.043231
          }
        }
      }
    }
  }
  JOINT LThigh
  {
    OFFSET 0.072557 0.027741 -0.005953
    CHANNELS 3 Xrotation Yrotation Zrotation
    JOINT LShin
    {
      OFFSET 0.005253 -0.285539 0.0
      CHANNELS 3 Xrotation Yrotation Zrotation
      JOINT LFoot
      {
        OFFSET 0.0 -0.28038 0.0
        CHANNELS 3 Xrotation Yrotation Zrotation
        JOINT LToe
        {
          OFFSET 0.0 -0.030816 0.064441
          CHANNELS 3 Xrotation Yrotation Zrotation
          End Site
          {
            OFFSET 0.0 0.0 0.043231
          }
        }
      }
    }
  }
}
MOTION
Frames: 15
Frame Time: 0.03333333333333333
-0.046191 0.534321 -0.12992 9.399602 -0.524781 -0.268902 3.025168 -0.31873 -1.028743 -0.075198 1.49959 -0.222178 -4.986801 3.696064 -2.340758 0.911732 0.565255 0.690285 0.091736 -0.0413 -0.034303 -0.67955 -1.329427 -2.813502 12.937523 -22.307629 -40.22826 11.402208 -52.691452 4.538799 0.210857 0.287013 -0.23475 -1.893699 -0.217293 4.991305 2.494513 33.7159 49.228569 8.062533 48.821472 -8.539932 0.225671 -0.597039 -0.009015 -35.81242 -0.514871 -6.513677 29.013046 -2.716238 6.844478 -2.52438 0.580769 -0.060721 0.18405 0.74853 0.119724 -25.678917 7.746312 13.006118 21.953892 10.192391 -11.027603 -3.219434 0.051327 0.230449 0.10139 -0.188046 -0.029543 
-0.042121 0.531482 -0.129121 6.680156 -0.528861 -0.987887 3.430499 -0.609341 -0.564253 -1.256857 1.766149 0.398862 -6.51131 3.987999 -0.924466 1.852354 0.528584 0.447551 0.084345 -0.287006 -0.091517 -1.164597 -2.859081 -2.908675 11.628861 -19.557732 -43.247715 11.021759 -51.463959 6.583236 0.16108 0.272461 -0.199605 -2.832443 0.240279 5.71605 3.961821 25.795195 50.789906 10.72507 51.011665 -11.433144 -0.086147 -0.352551 -0.037902 -31.194731 -2.427444 -6.015918 25.943447 -2.720394 6.262821 -1.69683 0.302117 -0.383407 -0.030259 0.531809 0.135889 -23.558277 9.530675 12.022929 19.679594 9.445251 -9.793452 -3.328105 0.279189 0.70365 0.139171 -0.24922 -0.058898 
-0.046331 0.535901 -0.120156 4.318015 1.013799 -1.066867 3.238412 -0.593295 -0.579334 -0.983545 1.761268 0.728371 -5.490493 3.635318 0.438941 1.81137 0.536891 0.453556 0.075585 -0.26533 -0.091724 -1.127588 -3.053118 -3.631873 10.269256 -17.493784 -46.389156 9.193145 -49.531719 6.443426 0.123436 0.229549 -0.155534 -2.734823 0.904496 6.041738 2.717623 20.062632 51.428303 5.865936 58.009418 -9.599483 -0.080169 -0.311429 -0.029874 -25.849436 -4.570348 -5.739754 21.508137 -3.365279 5.722602 -1.684516 0.459856 -0.299562 -0.013764 0.514375 0.134622 -18.919157 9.065022 10.845862 16.690952 8.52599 -8.716014 -3.468661 0.426334 0.84179 0.115791 -0.167732 -0.02778 
-0.047823 0.538458 -0.115317 2.769712 0.921918 -1.132187 3.084932 -0.618214 -0.521604 -0.726631 1.835908 0.844993 -4.59079 4.15943 1.073245 1.799781 0.544821 0.403183 0.067577 -0.273176 -0.083993 -1.152952 -3.070885 -4.329934 9.229496 -16.603718 -48.805855 7.587688 -49.095222 6.257475 0.111167 0.214049 -0.143271 -2.554191 1.037804 6.12136 -0.568931 16.664883 51.844067 2.04746 63.279423 -9.704795 -0.076366 -0.299266 -0.026941 -22.967793 -4.760828 -4.495671 19.566978 -3.275163 5.151747 -2.021232 0.551217 -0.254385 -0.002104 0.508975 0.139877 -16.056223 8.31794 10.17592 14.774046 7.471254 -7.777421 -3.644948 0.650318 0.966922 0.108106 -0.150457 -0.026561 
-0.050291 0.5375 -0.109195 1.554799 0.191552 -1.154642 3.039573 -0.628567 -0.499804 -0.545116 1.967839 0.886267 -3.666555 4.508866 1.452859 1.879959 0.550411 0.337029 0.064581 -0.259109 -0.077637 -1.13844 -2.939366 -4.944207 8.214446 -16.412685 -51.030964 6.184829 -48.315647 5.968376 0.10433 0.200951 -0.128354 -2.328481 0.836469 6.038261 -4.7668 14.72885 51.752548 -0.897918 68.597031 -11.242874 -0.065812 -0.27609 -0.023568 -20.353918 -4.422476 -3.229332 17.782005 -2.985717 4.631153 -2.552683 0.613023 -0.197915 0.004727 0.48792 0.135622 -13.745304 7.536895 9.423326 13.270463 6.448125 -6.599084 -3.850967 0.978122 1.113264 0.104001 -0.13206 -0.017095 
-0.051867 0.534767 -0.100957 0.605519 -0.687979 -1.140709 2.994995 -0.608238 -0.485328 -0.353432 2.135514 0.907808 -2.843554 4.806483 1.79502 1.894272 0.55378 0.246788 0.06389 -0.231656 -0.074577 -1.01503 -2.632626 -5.45981 7.489945 -16.654663 -52.964626 5.299599 -47.290352 5.786678 0.10188 0.195171 -0.118516 -2.045335 0.446659 5.712588 -9.17619 13.658839 51.273281 -1.397442 76.048592 -16.094067 -0.039187 -0.273489 -0.020014 -17.298952 -3.872941 -2.294766 15.610034 -2.715095 4.281612 -3.176369 0.713741 -0.121554 0.008755 0.486222 0.131137 -11.711577 6.559145 9.072998 12.165696 5.604762 -5.354949 -3.973275 1.30801 1.273593 0.107104 -0.117421 -0.004956 
-0.055594 0.532752 -0.092341 -0.044649 -1.115234 -1.157081 2.942657 -0.576818 -0.529225 -0.205918 2.210541 0.863929 -1.924373 4.975138 2.194672 1.86581 0.544795 0.16099 0.059737 -0.169014 -0.067087 -0.900467 -2.235742 -5.866016 7.18462 -17.212959 -54.195118 4.483313 -45.307224 5.440438 0.093026 0.177648 -0.101688 -1.739898 0.061592 5.270999 -13.498091 12.859063 50.918598 18.908606 84.479622 -41.618641 0.005586 -0.257345 -0.013042 -14.493591 -2.96086 -1.467335 13.565015 -2.378359 4.017521 -3.943042 0.836553 -0.030664 0.017637 0.458998 0.11828 -9.753513 5.126335 8.913182 11.07689 4.863903 -3.780381 -4.209915 1.685246 1.389737 0.100051 -0.090112 0.012723 
-0.057346 0.532945 -0.080114 -0.198576 -1.436102 -1.190966 2.822319 -0.509345 -0.556262 -0.203544 2.120591 0.784091 -1.162541 4.650284 2.518827 1.85779 0.512821 0.084109 0.053009 -0.103259 -0.054934 -0.882236 -1.733665 -6.297929 7.466502 -17.730722 -55.357571 4.091742 -42.442593 5.014076 0.078226 0.145943 -0.080469 -1.40227 -0.121177 4.877884 -17.709343 12.254615 49.638424 123.235466 83.606285 -150.41069 0.049214 -0.227211 -0.003613 -11.60642 -1.997798 -0.936277 10.661153 -1.962272 3.688348 -4.309775 0.91901 0.101565 0.020608 0.398522 0.101179 -7.47199 3.702201 8.553247 9.720088 4.349966 -2.223052 -4.550025 2.144626 1.515448 0.0795 -0.056002 0.026069 
-0.057476 0.535715 -0.065188 -0.592268 -1.89034 -1.25805 2.657887 -0.388257 -0.534117 -0.222317 1.997337 0.727406 -0.291982 4.159831 2.797454 1.841294 0.464045 0.008688 0.044333 -0.053917 -0.042857 -0.890461 -1.251297 -6.776945 8.070643 -18.022114 -56.267944 4.043851 -40.111961 4.593291 0.062599 0.116013 -0.059518 -1.094061 -0.204429 4.445348 -21.539619 11.696157 48.451717 139.347366 75.178658 -170.228333 0.075118 -0.19997 0.002662 -8.787884 -1.327973 -0.693082 8.634988 -1.680552 3.376521 -4.325312 1.036839 0.256888 0.021741 0.347698 0.091377 -4.613737 2.819093 8.064237 8.124294 3.974569 -0.917236 -4.760018 2.529603 1.645721 0.059741 -0.025722 0.033245 
-0.0568 0.54013 -0.051604 -1.137887 -1.938121 -1.245455 2.498844 -0.241688 -0.490452 -0.264225 1.859108 0.651695 0.658729 3.670066 3.144044 1.839876 0.405308 -0.053315 0.0324 0.002027 -0.029669 -0.928796 -0.800642 -7.295611 8.555279 -17.668749 -57.194588 3.842584 -38.633335 4.226737 0.041232 0.0791 -0.033004 -0.853317 -0.254154 4.116841 -25.429907 11.26256 47.170986 141.636658 68.228783 -175.287674 0.099698 -0.160684 0.00976 -6.4179 -0.799892 -0.633666 7.267555 -1.376218 3.072438 -4.265639 1.127205 0.413306 0.030405 0.281918 0.074722 -1.893168 2.337783 7.194016 6.618173 3.653996 0.20751 -4.915341 2.875404 1.739659 0.035209 0.012296 0.041985 
-0.055105 0.545528 -0.042761 -1.445879 -1.890908 -1.254231 2.410052 -0.100064 -0.418073 -0.370828 1.716581 0.58959 1.084876 3.184194 3.43238 1.948927 0.385041 -0.086517 0.021941 0.029555 -0.014289 -0.990296 -0.513469 -7.726791 9.283928 -17.274292 -58.134998 4.023204 -37.878883 4.132698 0.025549 0.050883 -0.012185 -0.70301 -0.325222 3.95823 -28.717415 11.530184 46.066868 142.415833 63.875252 -177.489334 0.093857 -0.104175 0.01447 -4.93669 -0.411628 -0.580018 6.509768 -1.128736 2.728756 -4.180121 1.086203 0.467988 0.028284 0.204881 0.054947 -0.147353 1.980271 6.336019 5.516722 3.307336 1.106768 -5.027245 3.20811 1.871536 0.012666 0.0407 0.042128 
-0.052239 0.550544 -0.036908 -1.871575 -1.881391 -1.284543 2.350487 0.016392 -0.340027 -0.475475 1.595252 0.559511 1.281684 2.808654 3.610485 2.069218 0.399298 -0.079258 0.015486 0.04161 -0.002046 -1.058867 -0.254249 -7.998086 10.079861 -17.021481 -58.875965 4.676663 -37.546921 4.077161 0.017038 0.037538 -0.004133 -0.57844 -0.394275 3.808906 -31.24107 12.229918 45.021118 142.552887 61.495983 -178.993423 0.073602 -0.060765 0.014284 -3.945267 -0.118522 -0.515466 6.240699 -0.888453 2.443858 -4.04396 1.081159 0.500888 0.021552 0.148527 0.042334 1.220773 1.849551 5.646648 4.784243 3.147142 1.72082 -5.158337 3.465135 1.988639 -0.004557 0.055015 0.039728 
-0.049007 0.554341 -0.033669 -2.308585 -1.719882 -1.25579 2.34112 0.10391 -0.264268 -0.534505 1.535749 0.568616 1.298491 2.656746 3.712367 2.175574 0.415589 -0.056235 0.010041 0.040256 0.008662 -1.139711 -0.110143 -8.224092 10.56465 -16.745678 -59.358921 5.202546 -37.225784 4.100304 0.011825 0.030811 -0.00109 -0.51744 -0.370843 3.540876 -33.44474 13.230199 44.084087 142.700195 60.086727 179.914719 0.04692 -0.022892 0.013143 -3.312747 0.120541 -0.534046 6.408215 -0.730716 2.216798 -3.943197 1.075346 0.518533 0.012854 0.105438 0.03463 2.243281 1.764427 4.989331 4.219485 2.940225 2.171523 -5.242236 3.623418 2.09036 -0.017908 0.060996 0.035738 
-0.045967 0.557062 -0.031899 -2.512588 -1.302023 -1.180801 2.309482 0.166658 -0.202061 -0.570175 1.538604 0.568886 1.185018 2.618586 3.723205 2.24184 0.424224 -0.038273 0.006362 0.033651 0.016954 -1.206181 -0.030621 -8.469449 11.0769 -16.614635 -59.541779 5.549184 -36.913132 3.883845 0.007589 0.028103 0.001846 -0.487513 -0.324887 3.204264 -35.132004 14.575103 43.037731 143.286484 59.270061 179.125381 0.027794 0.0014 0.012202 -2.855363 0.270597 -0.651321 6.49021 -0.64018 2.060282 -3.952851 1.048149 0.510232 0.002477 0.07263 0.029802 2.87018 1.749148 4.445902 3.710067 2.79191 2.542623 -5.253954 3.740119 2.163918 -0.026841 0.063835 0.032495 
-0.043321 0.558488 -0.031649 -2.554027 -0.858555 -1.046438 2.269536 0.199972 -0.148893 -0.599072 1.561141 0.574111 0.965268 2.677132 3.705718 2.278711 0.425152 -0.029191 0.003714 0.026845 0.020519 -1.232385 0.016563 -8.669136 11.456087 -16.936691 -59.656712 5.997489 -36.727917 3.602129 0.004529 0.027407 0.003775 -0.480384 -0.281759 2.870276 -36.991905 16.553074 42.178352 143.941284 59.006012 178.73909 0.015423 0.014862 0.011632 -2.624877 0.418653 -0.83229 6.518984 -0.531028 1.930178 -4.064512 1.013316 0.484483 -0.004386 0.059587 0.028193 3.100529 1.886938 4.008999 3.437367 2.791086 2.732636 -5.263942 3.809118 2.195257 -0.029673 0.062703 0.03016 
